<svg width="303" height="64" viewBox="0 0 303 64" fill="none" xmlns="http://www.w3.org/2000/svg">
<path fill-rule="evenodd" clip-rule="evenodd" d="M59.8 40.6L62.9 36.9C65 38.7 67.3 39.8 70 39.8C72.1 39.8 73.4 38.9 73.4 37.5V37.4C73.4 36.1 72.6 35.4 68.6 34.3C63.8 33.1 60.8 31.7 60.8 27V26.9C60.8 22.5 64.2 19.7 69.1 19.7C72.5 19.7 75.5 20.8 77.9 22.8L75.2 26.8C73.1 25.3 71 24.4 69 24.4C67 24.4 66 25.3 66 26.5V26.6C66 28.2 67 28.7 71.1 29.8C75.9 31.1 78.6 32.8 78.6 37V37.1C78.6 41.9 75 44.6 69.9 44.6C66.2 44.4 62.6 43.1 59.8 40.6Z" fill="#FFAB00"/>
<path fill-rule="evenodd" clip-rule="evenodd" d="M83 20H88.6L94.8 30.2L101 20H106.6V44H101.4V28.3L94.7 38.6H94.6L88 28.4V44H83V20Z" fill="#FFAB00"/>
<path fill-rule="evenodd" clip-rule="evenodd" d="M125.9 34L122.8 26.2L119.7 34H125.9ZM120.4 19.8H125.2L135.3 44H129.9L127.7 38.6H117.7L115.5 44H110.2L120.4 19.8Z" fill="#FFAB00"/>
<path fill-rule="evenodd" clip-rule="evenodd" d="M149.5 31.7C152 31.7 153.5 30.3 153.5 28.3V28.2C153.5 25.9 151.9 24.8 149.4 24.8H144.2V31.7H149.5ZM139 20H149.8C152.8 20 155.1 20.9 156.7 22.4C158 23.7 158.7 25.6 158.7 27.9V28C158.7 31.9 156.6 34.3 153.6 35.5L159.4 44.1H153.3L148.2 36.4H144.1V44.1H139V20Z" fill="#FFAB00"/>
<path fill-rule="evenodd" clip-rule="evenodd" d="M169 24.9H161.8V20H181.4V24.9H174.2V44.1H169V24.9Z" fill="#FFAB00"/>
<path d="M188.476 43V21.6719H194.496C196.352 21.6719 197.992 22.082 199.418 22.9023C200.844 23.7227 201.942 24.8896 202.714 26.4033C203.495 27.917 203.891 29.6553 203.9 31.6182V32.9805C203.9 34.9922 203.51 36.7549 202.729 38.2686C201.957 39.7822 200.849 40.9443 199.403 41.7549C197.968 42.5654 196.293 42.9805 194.379 43H188.476ZM191.288 23.9863V40.7002H194.247C196.415 40.7002 198.1 40.0264 199.301 38.6787C200.512 37.3311 201.117 35.4121 201.117 32.9219V31.6768C201.117 29.2549 200.546 27.375 199.403 26.0371C198.271 24.6895 196.659 24.0059 194.569 23.9863H191.288ZM219.618 37.4336H210.683L208.676 43H205.775L213.92 21.6719H216.381L224.54 43H221.654L219.618 37.4336ZM211.532 35.1191H218.783L215.15 25.1436L211.532 35.1191ZM235.233 34.3721H230.224V43H227.396V21.6719H234.457C236.859 21.6719 238.705 22.2188 239.994 23.3125C241.293 24.4062 241.942 25.998 241.942 28.0879C241.942 29.416 241.581 30.5732 240.858 31.5596C240.146 32.5459 239.149 33.2832 237.87 33.7715L242.88 42.8242V43H239.862L235.233 34.3721ZM230.224 32.0723H234.545C235.941 32.0723 237.05 31.7109 237.87 30.9883C238.7 30.2656 239.115 29.2988 239.115 28.0879C239.115 26.7695 238.72 25.7588 237.929 25.0557C237.147 24.3525 236.015 23.9961 234.53 23.9863H230.224V32.0723ZM259.462 23.9863H252.606V43H249.809V23.9863H242.968V21.6719H259.462V23.9863ZM268.676 33.4932C266.264 32.7998 264.506 31.9502 263.402 30.9443C262.309 29.9287 261.762 28.6787 261.762 27.1943C261.762 25.5146 262.431 24.1279 263.769 23.0342C265.116 21.9307 266.864 21.3789 269.013 21.3789C270.478 21.3789 271.781 21.6621 272.924 22.2285C274.076 22.7949 274.965 23.5762 275.59 24.5723C276.225 25.5684 276.542 26.6572 276.542 27.8389H273.715C273.715 26.5498 273.305 25.5391 272.484 24.8066C271.664 24.0645 270.507 23.6934 269.013 23.6934C267.626 23.6934 266.542 24.001 265.761 24.6162C264.989 25.2217 264.604 26.0664 264.604 27.1504C264.604 28.0195 264.97 28.7568 265.702 29.3623C266.444 29.958 267.699 30.5049 269.467 31.0029C271.244 31.501 272.631 32.0527 273.627 32.6582C274.633 33.2539 275.375 33.9521 275.854 34.7529C276.342 35.5537 276.586 36.4961 276.586 37.5801C276.586 39.3086 275.912 40.6953 274.564 41.7402C273.217 42.7754 271.415 43.293 269.159 43.293C267.694 43.293 266.327 43.0146 265.058 42.458C263.788 41.8916 262.807 41.1201 262.113 40.1436C261.43 39.167 261.088 38.0586 261.088 36.8184H263.915C263.915 38.1074 264.389 39.1279 265.336 39.8799C266.293 40.6221 267.567 40.9932 269.159 40.9932C270.644 40.9932 271.781 40.6904 272.572 40.085C273.363 39.4795 273.759 38.6543 273.759 37.6094C273.759 36.5645 273.393 35.7588 272.66 35.1924C271.928 34.6162 270.6 34.0498 268.676 33.4932Z" fill="black"/>
<path d="M48.0765 24.8134C49.7463 27.5303 50.7286 30.7144 50.7286 34.1305C50.7286 43.9771 42.7189 51.9873 32.8709 51.9873C23.0228 51.9873 15.0131 43.9771 15.0131 34.1305C15.0131 24.2836 23.0228 16.2723 32.8709 16.2723C36.2856 16.2723 39.4711 17.2536 42.1872 18.9234L44.915 16.1951C41.4691 13.8746 37.3267 12.5184 32.8709 12.5184C20.9555 12.5184 11.2596 22.2136 11.2596 34.1305C11.2596 46.047 20.9555 55.7409 32.8709 55.7409C44.7863 55.7409 54.4822 46.047 54.4822 34.1305C54.4822 29.6743 53.1258 25.5298 50.8058 22.0861L48.0765 24.8134Z" fill="#333333"/>
<path d="M38.9322 22.1758C37.1103 21.2475 35.0541 20.7123 32.8709 20.7123C25.4715 20.7123 19.4546 26.7311 19.4546 34.1305C19.4546 41.5279 25.4715 47.5463 32.8709 47.5463C40.2704 47.5463 46.2892 41.5279 46.2892 34.1305C46.2892 31.9468 45.7538 29.8902 44.823 28.0656L41.9493 30.9393C42.3044 31.9432 42.5358 33.0071 42.5358 34.1304C42.5358 39.4579 38.1989 43.7927 32.871 43.7927C27.5431 43.7927 23.2082 39.4578 23.2082 34.1304C23.2082 28.8015 27.5431 24.4657 32.871 24.4657C33.9948 24.4657 35.0579 24.6958 36.0601 25.0495L38.9322 22.1758Z" fill="#333333"/>
<path d="M34.0534 28.674C34.0549 28.5882 34.0753 28.5056 34.0824 28.4204C33.6901 28.3377 33.2869 28.2913 32.8709 28.2913C29.6471 28.2913 27.0331 30.9067 27.0331 34.1305C27.0331 37.3538 29.647 39.9673 32.8709 39.9673C36.0947 39.9673 38.7088 37.3538 38.7088 34.1305C38.7088 33.7136 38.6612 33.3078 38.5802 32.9155C38.4943 32.9225 38.4117 32.943 38.3275 32.9451L35.3102 35.9627C34.7387 36.5308 33.9819 36.8435 33.1771 36.8435C32.3743 36.8435 31.6155 36.5306 31.0398 35.9581C29.863 34.7812 29.863 32.865 31.0398 31.6855L34.0534 28.674Z" fill="black"/>
<path d="M65.7031 9.43094C65.6189 9.17277 65.3954 8.98641 65.1274 8.94611L58.9839 8.08676L58.0545 1.87332C58.0122 1.60457 57.8269 1.38181 57.5688 1.29575C57.4953 1.27103 57.4186 1.25901 57.3452 1.25901C57.1564 1.25901 56.9712 1.33438 56.8353 1.47076L50.2152 8.0891C50.054 8.24953 49.9805 8.47775 50.0136 8.7013L50.6586 13.1048L36.5698 27.1941C35.9778 27.7861 35.8145 28.6159 36.009 29.3737L32.3666 33.0125C31.9195 33.4611 31.9195 34.1837 32.3666 34.6313C32.5922 34.8548 32.8856 34.9666 33.177 34.9666C33.4699 34.9666 33.7635 34.8548 33.9869 34.6313L37.6271 30.9901C37.8287 31.0426 38.0338 31.0691 38.239 31.0691C38.8074 31.0691 39.372 30.8655 39.8047 30.4302L53.8936 16.3421L58.2979 16.9881C58.3311 16.9925 58.3679 16.9952 58.4011 16.9952C58.5914 16.9952 58.7746 16.9202 58.9103 16.7844L65.5269 10.1633C65.7214 9.97155 65.7909 9.68933 65.7031 9.43094Z" fill="#FFAB00"/>
</svg>
